<svg width="800" height="600" viewBox="0 0 800 600" fill="none" xmlns="http://www.w3.org/2000/svg">
  <!-- Background Elements -->
  <circle cx="400" cy="300" r="250" fill="url(#gradient1)" fill-opacity="0.1"/>
  <circle cx="400" cy="300" r="200" fill="url(#gradient2)" fill-opacity="0.05"/>
  
  <!-- Decorative Lines -->
  <path d="M200 250 Q400 150 600 250" stroke="url(#gradient3)" stroke-width="2" fill="none"/>
  <path d="M200 350 Q400 450 600 350" stroke="url(#gradient3)" stroke-width="2" fill="none"/>
  
  <!-- 404 Text Shadow -->
  <path d="M250 200 L350 200 L350 400 L250 400 L250 200 M400 200 L500 200 L500 400 L400 400 L400 200 M550 200 L650 200 L650 400 L550 400 L550 200" 
        stroke="rgba(255,255,255,0.1)" stroke-width="40" stroke-linejoin="round" fill="none"/>
  
  <!-- Gradients -->
  <defs>
    <linearGradient id="gradient1" x1="0" y1="0" x2="800" y2="600" gradientUnits="userSpaceOnUse">
      <stop offset="0%" stop-color="#2AC318"/>
      <stop offset="100%" stop-color="#FFE836"/>
    </linearGradient>
    
    <linearGradient id="gradient2" x1="800" y1="0" x2="0" y2="600" gradientUnits="userSpaceOnUse">
      <stop offset="0%" stop-color="#2AC318"/>
      <stop offset="100%" stop-color="#FFE836"/>
    </linearGradient>
    
    <linearGradient id="gradient3" x1="0" y1="300" x2="800" y2="300" gradientUnits="userSpaceOnUse">
      <stop offset="0%" stop-color="#2AC318" stop-opacity="0.3"/>
      <stop offset="50%" stop-color="#FFE836" stop-opacity="0.5"/>
      <stop offset="100%" stop-color="#2AC318" stop-opacity="0.3"/>
    </linearGradient>
  </defs>
</svg> 