<svg width="16" height="16" viewBox="0 0 16 16" fill="none" xmlns="http://www.w3.org/2000/svg">
<path d="M14.364 5.29246C14.1764 5.10499 13.9221 4.99968 13.657 4.99968C13.3918 4.99968 13.1375 5.10499 12.95 5.29246L7.99995 10.2425L3.04995 5.29246C2.86135 5.1103 2.60875 5.00951 2.34655 5.01179C2.08435 5.01407 1.83354 5.11924 1.64813 5.30464C1.46273 5.49005 1.35756 5.74086 1.35528 6.00306C1.353 6.26526 1.45379 6.51786 1.63595 6.70646L7.29295 12.3635C7.48048 12.5509 7.73479 12.6562 7.99995 12.6562C8.26512 12.6562 8.51942 12.5509 8.70695 12.3635L14.364 6.70646C14.5514 6.51894 14.6567 6.26463 14.6567 5.99946C14.6567 5.7343 14.5514 5.47999 14.364 5.29246Z" fill="white"/>
</svg>
