<svg width="25" height="25" viewBox="0 0 25 25" fill="none" xmlns="http://www.w3.org/2000/svg">
<path d="M15.368 10.9121C15.4038 10.8956 15.4405 10.8813 15.478 10.8691C15.5316 10.8645 15.5853 10.8772 15.631 10.9055C15.6768 10.9338 15.7122 10.9761 15.732 11.0261C15.738 11.0648 15.7416 11.1039 15.743 11.1431C15.75 11.2611 15.75 11.4201 15.75 11.6711C15.7499 11.7575 15.7483 11.8438 15.745 11.9301C15.7333 11.9897 15.7002 12.0431 15.652 12.0801L15.614 12.1021C15.574 12.1251 15.519 12.1521 15.423 12.2001L14.106 12.8581C13.95 12.9389 13.792 13.0156 13.632 13.0881C13.5962 13.1046 13.5595 13.1189 13.522 13.1311C13.4684 13.1357 13.4147 13.123 13.369 13.0947C13.3232 13.0664 13.2878 13.0241 13.268 12.9741C13.2617 12.9354 13.2577 12.8963 13.256 12.8571C13.2498 12.6812 13.2478 12.5051 13.25 12.3291C13.2501 12.2427 13.2517 12.1564 13.255 12.0701C13.2667 12.0105 13.2998 11.9571 13.348 11.9201L13.386 11.8981C13.426 11.8751 13.481 11.8481 13.577 11.8001L14.894 11.1421C15.118 11.0291 15.26 10.9591 15.368 10.9121ZM10.5 16.2501C10.8315 16.2501 11.1495 16.3818 11.3839 16.6162C11.6183 16.8506 11.75 17.1686 11.75 17.5001C11.75 17.8316 11.6183 18.1496 11.3839 18.384C11.1495 18.6184 10.8315 18.7501 10.5 18.7501C10.1685 18.7501 9.85054 18.6184 9.61612 18.384C9.3817 18.1496 9.25 17.8316 9.25 17.5001C9.25 17.1686 9.3817 16.8506 9.61612 16.6162C9.85054 16.3818 10.1685 16.2501 10.5 16.2501Z" fill="#FFE836"/>
<path fill-rule="evenodd" clip-rule="evenodd" d="M8.74999 6.515V5.5C8.74999 4.50544 9.14508 3.55161 9.84834 2.84835C10.5516 2.14509 11.5054 1.75 12.5 1.75C13.4945 1.75 14.4484 2.14509 15.1516 2.84835C15.8549 3.55161 16.25 4.50544 16.25 5.5V6.515C17.537 6.554 18.325 6.692 18.926 7.191C19.759 7.883 19.979 9.053 20.418 11.394L21.168 15.394C21.785 18.686 22.093 20.332 21.194 21.416C20.294 22.5 18.619 22.5 15.27 22.5H9.72999C6.37999 22.5 4.70599 22.5 3.80599 21.416C2.90599 20.332 3.21599 18.686 3.83199 15.394L4.58199 11.394C5.02199 9.054 5.24099 7.883 6.07399 7.191C6.67499 6.692 7.46299 6.554 8.74999 6.515ZM10.25 5.5C10.25 4.90326 10.487 4.33097 10.909 3.90901C11.331 3.48705 11.9033 3.25 12.5 3.25C13.0967 3.25 13.669 3.48705 14.091 3.90901C14.5129 4.33097 14.75 4.90326 14.75 5.5V6.5H10.25V5.5ZM10.5 20.25C11.2293 20.25 11.9288 19.9603 12.4445 19.4445C12.9603 18.9288 13.25 18.2293 13.25 17.5V14.614C13.398 14.6353 13.549 14.6373 13.703 14.62C13.901 14.597 14.08 14.53 14.231 14.464C14.38 14.399 14.557 14.31 14.761 14.208L16.131 13.523C16.2827 13.4537 16.4273 13.37 16.563 13.273C16.9048 13.0117 17.1383 12.6336 17.219 12.211C17.25 12.045 17.25 11.873 17.25 11.711V11.652C17.25 11.425 17.25 11.226 17.241 11.065C17.2356 10.8803 17.2032 10.6974 17.145 10.522C17.0107 10.1513 16.7551 9.83681 16.4196 9.62954C16.0842 9.42226 15.6886 9.33433 15.297 9.38C15.099 9.403 14.92 9.47 14.769 9.536C14.62 9.601 14.443 9.69 14.239 9.792L12.869 10.477C12.7173 10.5463 12.5726 10.63 12.437 10.727C12.0952 10.9883 11.8617 11.3664 11.781 11.789C11.749 11.955 11.75 12.167 11.75 12.329V15.049C11.3796 14.8602 10.9713 14.7578 10.5556 14.7495C10.14 14.7413 9.72788 14.8274 9.3503 15.0013C8.97272 15.1753 8.6395 15.4326 8.37568 15.7538C8.11186 16.0751 7.92432 16.452 7.82716 16.8563C7.72999 17.2605 7.72573 17.6814 7.8147 18.0875C7.90367 18.4936 8.08355 18.8742 8.34081 19.2008C8.59807 19.5274 8.92603 19.7913 9.30001 19.9729C9.67399 20.1544 10.0843 20.2498 10.5 20.25Z" fill="#FFE836"/>
</svg>
