<svg width="24" height="24" viewBox="0 0 24 24" fill="none" xmlns="http://www.w3.org/2000/svg">
<g clip-path="url(#clip0_702_2757)">
<path d="M21.5 4.00008H18.8333V6.00008C18.8333 6.19268 18.7954 6.3834 18.7217 6.56135C18.648 6.73929 18.5399 6.90097 18.4038 7.03717C18.2676 7.17336 18.1059 7.28139 17.9279 7.3551C17.75 7.42881 17.5593 7.46674 17.3667 7.46674C17.1741 7.46674 16.9833 7.42881 16.8054 7.3551C16.6275 7.28139 16.4658 7.17336 16.3296 7.03717C16.1934 6.90097 16.0854 6.73929 16.0116 6.56135C15.9379 6.3834 15.9 6.19268 15.9 6.00008V4.00008H8.13333V6.00008C8.13333 6.38906 7.97881 6.76211 7.70376 7.03717C7.4287 7.31222 7.05565 7.46674 6.66667 7.46674C6.27768 7.46674 5.90463 7.31222 5.62958 7.03717C5.35452 6.76211 5.2 6.38906 5.2 6.00008V4.00008H2.53333C2.37468 3.99827 2.21728 4.0283 2.07043 4.08838C1.92359 4.14847 1.79029 4.23739 1.67841 4.34989C1.56653 4.4624 1.47835 4.59619 1.41907 4.74336C1.3598 4.89054 1.33065 5.0481 1.33333 5.20674V20.1267C1.33068 20.2826 1.35876 20.4374 1.41596 20.5824C1.47316 20.7274 1.55837 20.8597 1.66671 20.9718C1.77505 21.0838 1.9044 21.1734 2.04738 21.2355C2.19035 21.2975 2.34416 21.3308 2.5 21.3334H21.5C21.6558 21.3308 21.8096 21.2975 21.9526 21.2355C22.0956 21.1734 22.225 21.0838 22.3333 20.9718C22.4416 20.8597 22.5268 20.7274 22.584 20.5824C22.6412 20.4374 22.6693 20.2826 22.6667 20.1267V5.20674C22.6693 5.0509 22.6412 4.89607 22.584 4.75108C22.5268 4.60609 22.4416 4.47379 22.3333 4.36174C22.225 4.24968 22.0956 4.16007 21.9526 4.09802C21.8096 4.03596 21.6558 4.00268 21.5 4.00008ZM6.66667 17.3334H5.33333V16.0001H6.66667V17.3334ZM6.66667 14.0001H5.33333V12.6667H6.66667V14.0001ZM6.66667 10.6667H5.33333V9.33341H6.66667V10.6667ZM10.6667 17.3334H9.33333V16.0001H10.6667V17.3334ZM10.6667 14.0001H9.33333V12.6667H10.6667V14.0001ZM10.6667 10.6667H9.33333V9.33341H10.6667V10.6667ZM14.6667 17.3334H13.3333V16.0001H14.6667V17.3334ZM14.6667 14.0001H13.3333V12.6667H14.6667V14.0001ZM14.6667 10.6667H13.3333V9.33341H14.6667V10.6667ZM18.6667 17.3334H17.3333V16.0001H18.6667V17.3334ZM18.6667 14.0001H17.3333V12.6667H18.6667V14.0001ZM18.6667 10.6667H17.3333V9.33341H18.6667V10.6667Z" fill="white"/>
<path d="M6.66667 6.66536C6.84348 6.66536 7.01305 6.59513 7.13807 6.4701C7.2631 6.34508 7.33333 6.17551 7.33333 5.9987V1.9987C7.33333 1.82189 7.2631 1.65232 7.13807 1.52729C7.01305 1.40227 6.84348 1.33203 6.66667 1.33203C6.48986 1.33203 6.32029 1.40227 6.19526 1.52729C6.07024 1.65232 6 1.82189 6 1.9987V5.9987C6 6.17551 6.07024 6.34508 6.19526 6.4701C6.32029 6.59513 6.48986 6.66536 6.66667 6.66536Z" fill="white"/>
<path d="M17.3333 6.66536C17.5101 6.66536 17.6797 6.59513 17.8047 6.4701C17.9298 6.34508 18 6.17551 18 5.9987V1.9987C18 1.82189 17.9298 1.65232 17.8047 1.52729C17.6797 1.40227 17.5101 1.33203 17.3333 1.33203C17.1565 1.33203 16.987 1.40227 16.8619 1.52729C16.7369 1.65232 16.6667 1.82189 16.6667 1.9987V5.9987C16.6667 6.17551 16.7369 6.34508 16.8619 6.4701C16.987 6.59513 17.1565 6.66536 17.3333 6.66536Z" fill="white"/>
</g>
<defs>
<clipPath id="clip0_702_2757">
<rect width="24" height="24" fill="white"/>
</clipPath>
</defs>
</svg>
