<svg width="40" height="40" viewBox="0 0 40 40" fill="none" xmlns="http://www.w3.org/2000/svg">
<path d="M28.3333 29.9997C26.4833 29.9997 25 31.483 25 33.333C25 34.2171 25.3511 35.0649 25.9763 35.69C26.6014 36.3152 27.4492 36.6663 28.3333 36.6663C29.2173 36.6663 30.0652 36.3152 30.6903 35.69C31.3154 35.0649 31.6666 34.2171 31.6666 33.333C31.6666 32.449 31.3154 31.6011 30.6903 30.976C30.0652 30.3509 29.2173 29.9997 28.3333 29.9997ZM1.66663 3.33301V6.66634H4.99996L11 19.3163L8.73329 23.3997C8.48329 23.8663 8.33329 24.4163 8.33329 24.9997C8.33329 25.8837 8.68448 26.7316 9.3096 27.3567C9.93472 27.9818 10.7826 28.333 11.6666 28.333H31.6666V24.9997H12.3666C12.2561 24.9997 12.1501 24.9558 12.072 24.8776C11.9939 24.7995 11.95 24.6935 11.95 24.583C11.95 24.4997 11.9666 24.433 12 24.383L13.5 21.6663H25.9166C27.1666 21.6663 28.2666 20.9663 28.8333 19.9497L34.8 9.16634C34.9166 8.89967 35 8.61634 35 8.33301C35 7.89098 34.8244 7.46706 34.5118 7.1545C34.1992 6.84194 33.7753 6.66634 33.3333 6.66634H8.68329L7.11663 3.33301M11.6666 29.9997C9.81663 29.9997 8.33329 31.483 8.33329 33.333C8.33329 34.2171 8.68448 35.0649 9.3096 35.69C9.93472 36.3152 10.7826 36.6663 11.6666 36.6663C12.5507 36.6663 13.3985 36.3152 14.0236 35.69C14.6488 35.0649 15 34.2171 15 33.333C15 32.449 14.6488 31.6011 14.0236 30.976C13.3985 30.3509 12.5507 29.9997 11.6666 29.9997Z" fill="white"/>
</svg>
