<svg width="15" height="16" viewBox="0 0 15 16" fill="none" xmlns="http://www.w3.org/2000/svg">
<path d="M0.590145 0.710524C0.661058 0.689586 0.735404 0.682835 0.808929 0.690656C0.882453 0.698476 0.953715 0.720716 1.01864 0.756103C1.08356 0.791489 1.14087 0.839329 1.18728 0.896883C1.2337 0.954438 1.26831 1.02058 1.28915 1.09152L1.70165 2.48802H12.6929C14.0729 2.48802 15.1266 3.77577 14.7291 5.12052L13.4879 9.32052C13.2239 10.216 12.3846 10.813 11.4516 10.813H4.58465C3.65165 10.813 2.81315 10.216 2.5484 9.32052L0.210645 1.41027C0.168301 1.26726 0.184492 1.11328 0.255659 0.982194C0.326825 0.851112 0.44714 0.752912 0.590145 0.710524ZM3.1874 13.6255C3.1874 13.178 3.36519 12.7487 3.68165 12.4323C3.99812 12.1158 4.42734 11.938 4.8749 11.938C5.32245 11.938 5.75167 12.1158 6.06814 12.4323C6.38461 12.7487 6.5624 13.178 6.5624 13.6255C6.5624 14.0731 6.38461 14.5023 6.06814 14.8188C5.75167 15.1352 5.32245 15.313 4.8749 15.313C4.42734 15.313 3.99812 15.1352 3.68165 14.8188C3.36519 14.5023 3.1874 14.0731 3.1874 13.6255ZM9.1874 13.6255C9.1874 13.4039 9.23104 13.1845 9.31585 12.9797C9.40065 12.775 9.52495 12.589 9.68165 12.4323C9.83835 12.2756 10.0244 12.1513 10.2291 12.0665C10.4339 11.9817 10.6533 11.938 10.8749 11.938C11.0965 11.938 11.3159 11.9817 11.5207 12.0665C11.7254 12.1513 11.9114 12.2756 12.0681 12.4323C12.2248 12.589 12.3491 12.775 12.4339 12.9797C12.5187 13.1845 12.5624 13.4039 12.5624 13.6255C12.5624 14.0731 12.3846 14.5023 12.0681 14.8188C11.7517 15.1352 11.3224 15.313 10.8749 15.313C10.4273 15.313 9.99812 15.1352 9.68165 14.8188C9.36519 14.5023 9.1874 14.0731 9.1874 13.6255Z" fill="#0C0C0C"/>
</svg>
