<svg width="60" height="61" viewBox="0 0 60 61" fill="none" xmlns="http://www.w3.org/2000/svg">
<g clip-path="url(#clip0_422_5320)">
<path fill-rule="evenodd" clip-rule="evenodd" d="M7.31564 2.08977C6.50735 1.30909 5.42477 0.877116 4.30107 0.886881C3.17737 0.896645 2.10246 1.34737 1.30785 2.14198C0.513243 2.93658 0.0625196 4.01149 0.0527549 5.13519C0.0429903 6.25889 0.474966 7.34147 1.25564 8.14977L23.9399 30.8341L1.25564 53.5183C0.846314 53.9137 0.519819 54.3866 0.295209 54.9095C0.0705991 55.4323 -0.0476276 55.9947 -0.0525726 56.5638C-0.0575175 57.1328 0.0509184 57.6972 0.266408 58.2239C0.481897 58.7506 0.800125 59.2291 1.20252 59.6315C1.60492 60.0339 2.08343 60.3521 2.61013 60.5676C3.13683 60.7831 3.70117 60.8915 4.27022 60.8866C4.83927 60.8816 5.40165 60.7634 5.92452 60.5388C6.44739 60.3142 6.9203 59.9877 7.31564 59.5783L29.9999 36.8941L52.6842 59.5783C53.4925 60.359 54.5751 60.791 55.6988 60.7812C56.8225 60.7715 57.8974 60.3207 58.692 59.5261C59.4866 58.7315 59.9373 57.6566 59.9471 56.5329C59.9569 55.4092 59.5249 54.3266 58.7442 53.5183L36.0599 30.8341L58.7442 8.14977C59.5249 7.34147 59.9569 6.25889 59.9471 5.13519C59.9373 4.01149 59.4866 2.93658 58.692 2.14198C57.8974 1.34737 56.8225 0.896645 55.6988 0.886881C54.5751 0.877116 53.4925 1.30909 52.6842 2.08977L29.9999 24.7741L7.31564 2.08977Z" fill="white"/>
</g>
<defs>
<clipPath id="clip0_422_5320">
<rect width="60" height="60" fill="white" transform="translate(0 0.835938)"/>
</clipPath>
</defs>
</svg>
