<svg width="19" height="18" viewBox="0 0 19 18" fill="none" xmlns="http://www.w3.org/2000/svg">
<g clip-path="url(#clip0_480_1634)">
<path d="M9.58496 0.959961C8.00271 0.959961 6.456 1.42915 5.1404 2.3082C3.82481 3.18726 2.79943 4.43668 2.19393 5.89849C1.58843 7.3603 1.43 8.96883 1.73868 10.5207C2.04736 12.0725 2.80929 13.498 3.92811 14.6168C5.04693 15.7356 6.47239 16.4976 8.02424 16.8062C9.57609 17.1149 11.1846 16.9565 12.6464 16.351C14.1082 15.7455 15.3577 14.7201 16.2367 13.4045C17.1158 12.0889 17.585 10.5422 17.585 8.95996C17.585 6.83823 16.7421 4.8034 15.2418 3.30311C13.7415 1.80282 11.7067 0.959961 9.58496 0.959961ZM13.615 8.99996H14.385C14.3744 10.2665 13.8642 11.4777 12.9653 12.37C12.0664 13.2624 10.8516 13.7637 9.58496 13.765H9.49996V13H9.58496C10.6482 12.9987 11.668 12.5778 12.4226 11.8288C13.1772 11.0798 13.6057 10.0632 13.615 8.99996ZM3.52496 8.99996H2.72496V8.95996C2.72614 7.15607 3.43779 5.42524 4.70582 4.14224C5.97386 2.85923 7.69622 2.12731 9.49996 2.10496V2.90496C7.9088 2.92857 6.39067 3.5766 5.27293 4.7093C4.15519 5.84201 3.52741 7.36863 3.52496 8.95996V8.99996ZM5.54996 8.99996H4.77996V8.95996C4.78108 7.70105 5.27621 6.49286 6.15888 5.59523C7.04156 4.6976 8.24125 4.18223 9.49996 4.15996V4.92996C8.44548 4.95218 7.44161 5.3864 6.70333 6.13964C5.96504 6.89287 5.55104 7.90524 5.54996 8.95996V8.99996ZM7.70996 8.95996C7.70996 8.58912 7.81993 8.22661 8.02596 7.91827C8.23199 7.60992 8.52482 7.3696 8.86743 7.22769C9.21004 7.08577 9.58704 7.04864 9.95076 7.12099C10.3145 7.19334 10.6486 7.37191 10.9108 7.63414C11.173 7.89636 11.3516 8.23045 11.4239 8.59417C11.4963 8.95788 11.4592 9.33488 11.3172 9.67749C11.1753 10.0201 10.935 10.3129 10.6267 10.519C10.3183 10.725 9.9558 10.835 9.58496 10.835C9.08768 10.835 8.61077 10.6374 8.25914 10.2858C7.90751 9.93415 7.70996 9.45724 7.70996 8.95996ZM9.58496 15.815H9.49996V15H9.58496C11.1806 14.9974 12.7109 14.3662 13.8443 13.2431C14.9777 12.12 15.6229 10.5955 15.64 8.99996H16.44C16.4268 10.8103 15.6991 12.5421 14.4152 13.8184C13.1314 15.0948 11.3953 15.8124 9.58496 15.815Z" fill="white"/>
</g>
<defs>
<clipPath id="clip0_480_1634">
<rect width="18" height="18" fill="white" transform="translate(0.5)"/>
</clipPath>
</defs>
</svg>
