<svg xmlns="http://www.w3.org/2000/svg" width="20" height="20" viewBox="0 0 20 20" fill="none">
  <path d="M19.8055 10.2305C19.8055 9.55179 19.7516 8.86146 19.6333 8.18751H10.2055V12.0513H15.6258C15.4172 13.2997 14.7062 14.359 13.6266 15.0688V17.5771H16.8094C18.6922 15.8443 19.8055 13.2729 19.8055 10.2305Z" fill="#4285F4"/>
  <path d="M10.2055 20C12.9258 20 15.2305 19.1041 16.8094 17.5771L13.6266 15.0687C12.7203 15.6681 11.5633 16.0212 10.2055 16.0212C7.59492 16.0212 5.38828 14.2615 4.58906 11.8999H1.30859V14.4916C2.87578 17.7593 6.27344 20 10.2055 20Z" fill="#34A853"/>
  <path d="M4.58906 11.9C4.41875 11.3006 4.32344 10.6639 4.32344 10C4.32344 9.33615 4.41875 8.69948 4.58906 8.10011V5.50842H1.30859C0.657031 6.85842 0.285156 8.38428 0.285156 10C0.285156 11.6158 0.657031 13.1416 1.30859 14.4916L4.58906 11.9Z" fill="#FBBC05"/>
  <path d="M10.2055 3.97876C11.6852 3.97876 13.0039 4.48751 14.0562 5.47188L16.8906 2.6375C15.2242 1.0041 12.9195 0 10.2055 0C6.27344 0 2.87578 2.24073 1.30859 5.50845L4.58906 8.10013C5.38828 5.73845 7.59492 3.97876 10.2055 3.97876Z" fill="#EA4335"/>
</svg> 