<svg width="60" height="60" viewBox="0 0 60 60" fill="none" xmlns="http://www.w3.org/2000/svg">
<path opacity="0.5" fill-rule="evenodd" clip-rule="evenodd" d="M5.625 30C5.625 16.5375 16.5375 5.625 30 5.625C43.4625 5.625 54.375 16.5375 54.375 30V36.9825C54.6578 36.8825 54.9604 36.8518 55.2575 36.893C55.5546 36.9342 55.8375 37.0461 56.0824 37.2193C56.3273 37.3924 56.5271 37.6218 56.665 37.8881C56.803 38.1545 56.875 38.4501 56.875 38.75V43.75C56.875 44.2473 56.6775 44.7242 56.3258 45.0758C55.9742 45.4275 55.4973 45.625 55 45.625C54.5027 45.625 54.0258 45.4275 53.6742 45.0758C53.3225 44.7242 53.125 44.2473 53.125 43.75V42.5H50.625V30C50.625 24.5299 48.452 19.2839 44.5841 15.4159C40.7161 11.548 35.4701 9.375 30 9.375C24.5299 9.375 19.2839 11.548 15.4159 15.4159C11.548 19.2839 9.375 24.5299 9.375 30V42.5H6.875V43.75C6.875 44.2473 6.67746 44.7242 6.32583 45.0758C5.97419 45.4275 5.49728 45.625 5 45.625C4.50272 45.625 4.02581 45.4275 3.67417 45.0758C3.32254 44.7242 3.125 44.2473 3.125 43.75V38.75C3.12504 38.4501 3.19704 38.1545 3.33495 37.8881C3.47287 37.6218 3.67266 37.3924 3.91758 37.2193C4.16249 37.0461 4.44537 36.9342 4.74247 36.893C5.03957 36.8518 5.34221 36.8825 5.625 36.9825V30Z" fill="#2AC318"/>
<path d="M20 35.1255C20 33.0005 20 31.9405 19.475 31.2005C19.2071 30.8279 18.8573 30.5217 18.4525 30.3055C17.64 29.8705 16.545 29.9705 14.3525 30.173C10.6525 30.508 8.8075 30.678 7.4825 31.6005C6.8168 32.0635 6.25416 32.6593 5.83 33.3505C5 34.713 5 36.5005 5 40.0755V44.4255C5 47.968 5 49.7405 5.845 51.108C6.1625 51.6205 6.56 52.083 7.0225 52.4755C8.26 53.533 10.065 53.863 13.6775 54.5205C16.2175 54.9855 17.49 55.218 18.4275 54.728C18.7758 54.5446 19.0758 54.3055 19.3275 54.0105C20 53.213 20 51.9655 20 49.473V35.1255ZM40 35.1255C40 33.0005 40 31.9405 40.525 31.2005C40.7875 30.8305 41.1375 30.523 41.5475 30.3055C42.36 29.8705 43.455 29.9705 45.6475 30.173C49.3475 30.508 51.1925 30.678 52.5175 31.6005C53.1875 32.0705 53.75 32.6655 54.17 33.3505C55 34.7105 55 36.5005 55 40.0755V44.4255C55 47.968 55 49.7405 54.155 51.108C53.8375 51.6205 53.44 52.083 52.9775 52.4755C51.74 53.533 49.935 53.863 46.3225 54.5205C43.7825 54.9855 42.51 55.218 41.5725 54.728C41.229 54.5491 40.9234 54.3055 40.6725 54.0105C40 53.213 40 51.9655 40 49.473V35.1255Z" fill="#2AC318"/>
</svg>
