<svg width="24" height="24" viewBox="0 0 24 24" fill="none" xmlns="http://www.w3.org/2000/svg">
<path d="M7.53676 3.75001C7.03922 3.74912 6.54641 3.84646 6.08658 4.03644C5.62675 4.22643 5.20895 4.50533 4.85714 4.85714C4.50533 5.20895 4.22643 5.62675 4.03645 6.08658C3.84646 6.54641 3.74912 7.03922 3.75001 7.53676V16.4625C3.74902 16.9601 3.84629 17.453 4.03623 17.9129C4.22617 18.3728 4.50505 18.7907 4.85687 19.1426C5.20869 19.4945 5.62653 19.7735 6.08641 19.9635C6.54629 20.1535 7.03916 20.2509 7.53676 20.25H16.4625C16.9601 20.251 17.453 20.1537 17.9129 19.9638C18.3728 19.7738 18.7907 19.495 19.1426 19.1431C19.4945 18.7913 19.7735 18.3735 19.9635 17.9136C20.1535 17.4537 20.2509 16.9609 20.25 16.4633V7.53751C20.251 7.03991 20.1537 6.54702 19.9638 6.0871C19.7738 5.62718 19.495 5.20929 19.1431 4.8574C18.7913 4.50551 18.3735 4.22655 17.9136 4.03652C17.4537 3.84648 16.9609 3.74912 16.4633 3.75001H7.53751H7.53676ZM11.985 5.25001C12.8715 5.25006 13.7493 5.42471 14.5682 5.76399C15.3872 6.10328 16.1313 6.60054 16.7581 7.22741C17.3849 7.85428 17.8821 8.59846 18.2213 9.41747C18.5605 10.2365 18.7351 11.1143 18.735 12.0008C18.735 12.8872 18.5603 13.765 18.221 14.584C17.8817 15.403 17.3845 16.1471 16.7576 16.7739C16.1307 17.4007 15.3866 17.8979 14.5675 18.2371C13.7485 18.5763 12.8707 18.7508 11.9843 18.7508C10.1939 18.7507 8.477 18.0394 7.21113 16.7734C5.94526 15.5073 5.23416 13.7903 5.23426 12C5.23436 10.2097 5.94565 8.49275 7.21166 7.22688C8.47767 5.96101 10.1947 5.24991 11.985 5.25001ZM11.985 6.01876C11.1987 6.01876 10.4202 6.17369 9.69378 6.4747C8.9674 6.7757 8.30746 7.21689 7.75165 7.77305C7.19584 8.3292 6.75507 8.98943 6.45451 9.71599C6.15396 10.4426 5.99952 11.2212 6.00001 12.0075C6.00001 15.3128 8.67601 18 11.985 18C12.7714 18.0001 13.5502 17.8453 14.2767 17.5444C15.0033 17.2435 15.6635 16.8025 16.2196 16.2464C16.7758 15.6904 17.2169 15.0302 17.5179 14.3037C17.8188 13.5771 17.9738 12.7984 17.9738 12.012C17.9738 8.70301 15.291 6.01951 11.985 6.01951V6.01876ZM14.487 8.25001C14.6835 8.23651 14.7975 8.35351 14.7975 8.55001C14.7945 14.427 14.8118 13.8923 14.763 14.1053C14.6528 14.574 14.298 14.8358 13.8225 14.925C13.4055 15.0008 13.0575 15.0218 12.7238 14.7525C12.63 14.6772 12.5535 14.5826 12.4994 14.4752C12.4454 14.3678 12.415 14.25 12.4104 14.1299C12.4058 14.0097 12.427 13.8899 12.4726 13.7787C12.5183 13.6674 12.5873 13.5673 12.675 13.485C12.9645 13.2098 13.3748 13.155 13.9845 13.0448C14.088 13.0275 14.1773 13.0035 14.25 12.9173C14.3603 12.7935 14.3265 13.0665 14.3265 10.3523C14.3265 10.1595 14.2328 10.1063 14.0363 10.1408C13.8983 10.1648 10.8713 10.7303 10.8713 10.7303C10.6988 10.7678 10.6388 10.8188 10.6388 11.0153C10.6388 15.015 10.6568 14.6153 10.5983 14.88C10.5674 15.023 10.5054 15.1575 10.4168 15.2739C10.3281 15.3903 10.2149 15.4857 10.0853 15.5535C9.80026 15.7118 9.27976 15.7823 9.00451 15.7335C8.26726 15.5963 8.00851 14.745 8.50801 14.256C8.79751 13.9808 9.20776 13.9253 9.81751 13.815C9.92101 13.7978 10.0095 13.7738 10.0823 13.6875C10.2548 13.491 10.1138 9.53026 10.1723 9.30001C10.1826 9.21408 10.2256 9.13541 10.2923 9.08026C10.3606 9.03091 10.4398 8.99876 10.5233 8.98651C14.0033 8.33176 14.4255 8.25001 14.487 8.25001Z" fill="white"/>
</svg>
