<svg width="24" height="25" viewBox="0 0 24 25" fill="none" xmlns="http://www.w3.org/2000/svg">
<path d="M17 16.8359L21 12.8359M21 12.8359L17 8.83594M21 12.8359H7M13 16.8359V17.8359C13 18.6316 12.6839 19.3946 12.1213 19.9573C11.5587 20.5199 10.7956 20.8359 10 20.8359H6C5.20435 20.8359 4.44129 20.5199 3.87868 19.9573C3.31607 19.3946 3 18.6316 3 17.8359V7.83594C3 7.04029 3.31607 6.27723 3.87868 5.71462C4.44129 5.15201 5.20435 4.83594 6 4.83594H10C10.7956 4.83594 11.5587 5.15201 12.1213 5.71462C12.6839 6.27723 13 7.04029 13 7.83594V8.83594" stroke="white" stroke-width="2" stroke-linecap="round" stroke-linejoin="round"/>
</svg>
