<svg width="25" height="24" viewBox="0 0 25 24" fill="none" xmlns="http://www.w3.org/2000/svg">
<path d="M13.303 7.00971L13.237 6.96971C12.489 6.51471 11.831 6.11371 11.267 5.91171C10.9561 5.79222 10.6238 5.73875 10.291 5.75471C9.94082 5.78144 9.60607 5.91006 9.32805 6.12471C8.74905 6.55871 8.49905 7.19771 8.36205 7.90471C8.22905 8.58971 8.17805 9.48171 8.11505 10.5677L8.11205 10.6237C8.07405 11.2737 8.05005 11.9167 8.05005 12.4997C8.05005 13.0827 8.07405 13.7267 8.11205 14.3767L8.11505 14.4317C8.17805 15.5177 8.22905 16.4097 8.36205 17.0937C8.49905 17.8017 8.74905 18.4397 9.32805 18.8747C9.61405 19.0897 9.93505 19.2177 10.291 19.2447C10.633 19.2697 10.961 19.1977 11.267 19.0877C11.831 18.8857 12.489 18.4847 13.237 18.0307L13.303 17.9907C13.729 17.7307 14.147 17.4637 14.52 17.2007C14.9768 16.8757 15.4221 16.5349 15.855 16.1787L15.905 16.1377C16.669 15.5147 17.317 14.9857 17.765 14.4657C18.253 13.8957 18.55 13.2837 18.55 12.4997C18.55 11.7157 18.253 11.1027 17.764 10.5337C17.317 10.0137 16.669 9.48371 15.906 8.86171L15.856 8.82071C15.402 8.45071 14.946 8.09671 14.52 7.79871C14.1228 7.52264 13.7169 7.25918 13.303 7.00871" fill="black"/>
</svg>
