<svg width="24" height="25" viewBox="0 0 24 25" fill="none" xmlns="http://www.w3.org/2000/svg">
<path d="M12.503 7.50971L12.437 7.46971C11.689 7.01471 11.031 6.61371 10.467 6.41171C10.1561 6.29222 9.8237 6.23875 9.491 6.25471C9.14078 6.28144 8.80602 6.41006 8.528 6.62471C7.949 7.05871 7.699 7.69771 7.562 8.40471C7.429 9.08971 7.378 9.98171 7.315 11.0677L7.312 11.1237C7.274 11.7737 7.25 12.4167 7.25 12.9997C7.25 13.5827 7.274 14.2267 7.312 14.8767L7.315 14.9317C7.378 16.0177 7.429 16.9097 7.562 17.5937C7.699 18.3017 7.949 18.9397 8.528 19.3747C8.814 19.5897 9.135 19.7177 9.491 19.7447C9.833 19.7697 10.161 19.6977 10.467 19.5877C11.031 19.3857 11.689 18.9847 12.437 18.5307L12.503 18.4907C12.929 18.2307 13.347 17.9637 13.72 17.7007C14.1768 17.3757 14.6221 17.0349 15.055 16.6787L15.105 16.6377C15.869 16.0147 16.517 15.4857 16.965 14.9657C17.453 14.3957 17.75 13.7837 17.75 12.9997C17.75 12.2157 17.453 11.6027 16.964 11.0337C16.517 10.5137 15.869 9.98371 15.106 9.36171L15.056 9.32071C14.602 8.95071 14.146 8.59671 13.72 8.29871C13.3227 8.02264 12.9169 7.75918 12.503 7.50871" fill="#2AC318"/>
</svg>
