<svg width="24" height="24" viewBox="0 0 24 24" fill="none" xmlns="http://www.w3.org/2000/svg">
<g clip-path="url(#clip0_113_576)">
<path d="M23.999 14.165C23.947 15.961 22.387 17.334 20.599 17.334H12.419C12.239 17.3327 12.0669 17.2601 11.9404 17.132C11.8138 17.004 11.7432 16.831 11.744 16.651V7.86204C11.7368 7.70972 11.7762 7.55882 11.857 7.42947C11.9378 7.30012 12.056 7.19846 12.196 7.13804C12.196 7.13804 12.946 6.62504 14.529 6.62504C15.5015 6.6214 16.4566 6.88239 17.292 7.38004C17.9425 7.75962 18.5068 8.27035 18.9493 8.87978C19.3917 9.48921 19.7026 10.184 19.862 10.92C20.144 10.84 20.436 10.799 20.73 10.8C21.614 10.8 22.46 11.158 23.077 11.792C23.694 12.426 24.025 13.282 23.999 14.165ZM10.721 8.42104C10.968 11.401 11.148 14.118 10.721 17.093C10.721 17.1633 10.6931 17.2307 10.6434 17.2804C10.5937 17.3301 10.5263 17.358 10.456 17.358C10.3857 17.358 10.3183 17.3301 10.2686 17.2804C10.2189 17.2307 10.191 17.1633 10.191 17.093C9.79603 14.147 9.97103 11.375 10.191 8.42104C10.191 8.35075 10.2189 8.28335 10.2686 8.23365C10.3183 8.18396 10.3857 8.15604 10.456 8.15604C10.5263 8.15604 10.5937 8.18396 10.6434 8.23365C10.6931 8.28335 10.721 8.35075 10.721 8.42104ZM9.07203 9.44804C9.35703 12.107 9.44203 14.434 9.06603 17.103C9.05791 17.1703 9.02544 17.2322 8.97478 17.2771C8.92411 17.322 8.85874 17.3468 8.79103 17.3468C8.72332 17.3468 8.65795 17.322 8.60728 17.2771C8.55661 17.2322 8.52415 17.1703 8.51603 17.103C8.18503 14.473 8.26003 12.083 8.51603 9.44804C8.51603 9.37431 8.54532 9.3036 8.59745 9.25146C8.64959 9.19933 8.7203 9.17004 8.79403 9.17004C8.86776 9.17004 8.93847 9.19933 8.99061 9.25146C9.04274 9.3036 9.07203 9.37431 9.07203 9.44804ZM7.40903 9.19104C7.67903 11.917 7.79903 14.362 7.40903 17.095C7.40903 17.1656 7.381 17.2332 7.33112 17.2831C7.28123 17.333 7.21358 17.361 7.14303 17.361C7.07248 17.361 7.00482 17.333 6.95494 17.2831C6.90505 17.2332 6.87703 17.1656 6.87703 17.095C6.49703 14.405 6.62003 11.885 6.87703 9.19104C6.87703 9.12049 6.90505 9.05283 6.95494 9.00295C7.00482 8.95306 7.07248 8.92504 7.14303 8.92504C7.21358 8.92504 7.28123 8.95306 7.33112 9.00295C7.381 9.05283 7.40903 9.12049 7.40903 9.19104ZM5.76203 9.96104C6.08837 12.3324 6.08568 14.7374 5.75403 17.108C5.74819 17.1759 5.71712 17.2391 5.66694 17.2851C5.61676 17.3312 5.55113 17.3567 5.48303 17.3567C5.41492 17.3567 5.3493 17.3312 5.29912 17.2851C5.24894 17.2391 5.21786 17.1759 5.21203 17.108C4.90674 14.7355 4.90674 12.3336 5.21203 9.96104C5.21203 9.8881 5.241 9.81816 5.29257 9.76658C5.34415 9.71501 5.41409 9.68604 5.48703 9.68604C5.55996 9.68604 5.62991 9.71501 5.68148 9.76658C5.73306 9.81816 5.76203 9.8881 5.76203 9.96104ZM4.09203 11.73C4.51303 13.595 4.32003 15.23 4.06303 17.118C4.06303 17.1862 4.03595 17.2516 3.98776 17.2998C3.93956 17.348 3.87419 17.375 3.80603 17.375C3.73787 17.375 3.6725 17.348 3.6243 17.2998C3.57611 17.2516 3.54903 17.1862 3.54903 17.118C3.33903 15.26 3.15103 13.569 3.54903 11.729C3.55323 11.6599 3.58366 11.5949 3.63412 11.5474C3.68457 11.5 3.75124 11.4735 3.82053 11.4735C3.88981 11.4735 3.95649 11.5 4.00694 11.5474C4.0574 11.5949 4.08783 11.6609 4.09203 11.73ZM2.43703 11.457C2.82503 13.354 2.69703 14.965 2.42703 16.869C2.40103 17.149 1.91303 17.152 1.88703 16.869C1.64303 14.991 1.54003 13.329 1.87703 11.457C1.88689 11.3898 1.92061 11.3284 1.97202 11.284C2.02343 11.2396 2.08909 11.2151 2.15703 11.2151C2.22496 11.2151 2.29063 11.2396 2.34204 11.284C2.39345 11.3284 2.42716 11.3898 2.43703 11.457ZM0.769029 12.368C1.16903 13.636 1.02603 14.66 0.743029 15.94C0.743029 16.0082 0.715953 16.0736 0.667756 16.1218C0.619559 16.17 0.55419 16.197 0.486029 16.197C0.417869 16.197 0.3525 16.17 0.304303 16.1218C0.256106 16.0736 0.229029 16.0082 0.229029 15.94C-0.0119708 14.678 -0.124971 13.628 0.206029 12.368C0.213229 12.2984 0.245991 12.2339 0.297985 12.187C0.349979 12.1401 0.417511 12.1141 0.487529 12.1141C0.557547 12.1141 0.62508 12.1401 0.677073 12.187C0.729067 12.2339 0.76183 12.2984 0.769029 12.368Z" fill="white"/>
</g>
<defs>
<clipPath id="clip0_113_576">
<rect width="24" height="24" fill="white"/>
</clipPath>
</defs>
</svg>
