<svg width="25" height="24" viewBox="0 0 25 24" fill="none" xmlns="http://www.w3.org/2000/svg">
<path fill-rule="evenodd" clip-rule="evenodd" d="M17.9702 14.4703C18.1108 14.3299 18.3014 14.251 18.5002 14.251C18.6989 14.251 18.8895 14.3299 19.0302 14.4703L21.5302 16.9703C21.6038 17.039 21.6629 17.1218 21.7039 17.2138C21.7449 17.3058 21.767 17.4051 21.7687 17.5058C21.7705 17.6065 21.752 17.7065 21.7143 17.7999C21.6766 17.8933 21.6204 17.9781 21.5492 18.0494C21.478 18.1206 21.3931 18.1767 21.2998 18.2144C21.2064 18.2522 21.1063 18.2707 21.0056 18.2689C20.9049 18.2671 20.8056 18.2451 20.7136 18.2041C20.6216 18.1631 20.5388 18.104 20.4702 18.0303L19.2502 16.8103V22.0003C19.2502 22.1992 19.1711 22.39 19.0305 22.5306C18.8898 22.6713 18.6991 22.7503 18.5002 22.7503C18.3012 22.7503 18.1105 22.6713 17.9698 22.5306C17.8292 22.39 17.7502 22.1992 17.7502 22.0003V16.8103L16.5302 18.0303C16.4615 18.104 16.3787 18.1631 16.2867 18.2041C16.1947 18.2451 16.0954 18.2671 15.9947 18.2689C15.894 18.2707 15.7939 18.2522 15.7006 18.2144C15.6072 18.1767 15.5223 18.1206 15.4511 18.0494C15.3799 17.9781 15.3238 17.8933 15.286 17.7999C15.2483 17.7065 15.2298 17.6065 15.2316 17.5058C15.2333 17.4051 15.2554 17.3058 15.2964 17.2138C15.3374 17.1218 15.3965 17.039 15.4702 16.9703L17.9702 14.4703Z" fill="white"/>
<path d="M13.256 8.64401C13.2577 8.60448 13.2617 8.56508 13.268 8.52601C13.2878 8.47618 13.323 8.43401 13.3686 8.40574C13.4141 8.37747 13.4676 8.3646 13.521 8.36901C13.529 8.37201 13.561 8.38101 13.631 8.41201C13.74 8.45901 13.881 8.53001 14.106 8.64201L15.423 9.30001C15.5004 9.33859 15.5771 9.3786 15.653 9.42001C15.7008 9.45721 15.7335 9.51052 15.745 9.57001L15.748 9.61501C15.7547 9.86233 15.753 10.1098 15.743 10.357C15.742 10.3962 15.7386 10.4352 15.733 10.474C15.7131 10.5242 15.6776 10.5666 15.6316 10.5949C15.5856 10.6232 15.5318 10.6359 15.478 10.631C15.4405 10.6192 15.4038 10.6052 15.368 10.589C15.26 10.542 15.118 10.471 14.894 10.359L13.577 9.70001C13.4996 9.66144 13.4229 9.62143 13.347 9.58001C13.2992 9.54282 13.2665 9.48951 13.255 9.43001L13.252 9.38601L13.25 9.17101C13.25 8.92001 13.25 8.76101 13.256 8.64401ZM10.5 13.75C10.8315 13.75 11.1495 13.8817 11.3839 14.1161C11.6183 14.3506 11.75 14.6685 11.75 15C11.75 15.3315 11.6183 15.6495 11.3839 15.8839C11.1495 16.1183 10.8315 16.25 10.5 16.25C10.1685 16.25 9.85054 16.1183 9.61612 15.8839C9.3817 15.6495 9.25 15.3315 9.25 15C9.25 14.6685 9.3817 14.3506 9.61612 14.1161C9.85054 13.8817 10.1685 13.75 10.5 13.75Z" fill="white"/>
<path fill-rule="evenodd" clip-rule="evenodd" d="M16.25 21.273C15.0583 21.754 13.7851 22.0009 12.5 22C6.977 22 2.5 17.523 2.5 12C2.5 6.477 6.977 2 12.5 2C18.023 2 22.5 6.477 22.5 12C22.5009 13.1128 22.316 14.218 21.953 15.27L20.09 13.41C19.8811 13.2011 19.633 13.0353 19.36 12.9223C19.0871 12.8092 18.7945 12.751 18.499 12.751C18.2035 12.751 17.9109 12.8092 17.638 12.9223C17.365 13.0353 17.1169 13.2011 16.908 13.41L14.408 15.91C14.0783 16.2398 13.8591 16.6639 13.7809 17.1236C13.7027 17.5834 13.7693 18.0561 13.9715 18.4763C14.1736 18.8966 14.5014 19.2436 14.9094 19.4695C15.3174 19.6953 15.7855 19.7888 16.249 19.737L16.25 21.273ZM13.25 11.213L14.24 11.709C14.443 11.81 14.62 11.899 14.769 11.964C14.919 12.03 15.099 12.097 15.297 12.12C15.6886 12.1657 16.0842 12.0777 16.4197 11.8705C16.7551 11.6632 17.0107 11.3487 17.145 10.978C17.2031 10.803 17.2355 10.6204 17.241 10.436C17.25 10.274 17.25 10.075 17.25 9.848V9.788C17.25 9.627 17.25 9.455 17.219 9.289C17.1381 8.86676 16.9046 8.48908 16.563 8.228C16.4271 8.1306 16.2821 8.04655 16.13 7.977L14.76 7.292C14.557 7.19 14.38 7.102 14.231 7.037C14.0636 6.9593 13.8857 6.90641 13.703 6.88C13.3114 6.83433 12.9158 6.92226 12.5803 7.12954C12.2449 7.33681 11.9893 7.65129 11.855 8.022C11.7964 8.19732 11.7637 8.38024 11.758 8.565C11.7518 8.70991 11.7492 8.85496 11.75 9V12.55C11.2162 12.2776 10.6081 12.187 10.0181 12.292C9.42811 12.3971 8.88858 12.6919 8.48157 13.1318C8.07457 13.5716 7.82238 14.1323 7.76337 14.7287C7.70435 15.325 7.84175 15.9243 8.15466 16.4354C8.46756 16.9465 8.93885 17.3414 9.49681 17.56C10.0548 17.7786 10.6689 17.809 11.2457 17.6465C11.8225 17.484 12.3304 17.1375 12.6922 16.6598C13.054 16.1821 13.2499 15.5993 13.25 15V11.213Z" fill="white"/>
</svg>
