<svg width="32" height="32" viewBox="0 0 32 32" fill="none" xmlns="http://www.w3.org/2000/svg">
<g clip-path="url(#clip0_523_766)">
<path d="M16.1509 1.70703C13.338 1.70703 10.5883 2.54115 8.2495 4.10391C5.91066 5.66667 4.08777 7.88787 3.01132 10.4866C1.93487 13.0854 1.65323 15.945 2.20199 18.7039C2.75076 21.4627 4.1053 23.9969 6.09431 25.9859C8.08332 27.9749 10.6175 29.3294 13.3763 29.8782C16.1352 30.427 18.9948 30.1453 21.5935 29.0689C24.1923 27.9924 26.4135 26.1695 27.9763 23.8307C29.539 21.4919 30.3732 18.7421 30.3732 15.9293C30.3732 12.1573 28.8748 8.53981 26.2076 5.87262C23.5404 3.20544 19.9229 1.70703 16.1509 1.70703ZM23.3154 16.0004H24.6843C24.6655 18.252 23.7585 20.4052 22.1605 21.9916C20.5624 23.578 18.4027 24.4692 16.1509 24.4715H15.9998V23.1115H16.1509C18.0412 23.1092 19.8541 22.361 21.1956 21.0294C22.5372 19.6978 23.299 17.8905 23.3154 16.0004ZM5.37761 16.0004H3.95538V15.9293C3.95747 12.7223 5.22263 9.64531 7.47691 7.36441C9.73119 5.08351 12.7932 3.78232 15.9998 3.74259V5.16481C13.1711 5.20679 10.4722 6.35884 8.4851 8.37253C6.49801 10.3862 5.38196 13.1002 5.37761 15.9293V16.0004ZM8.97761 16.0004H7.60872V15.9293C7.6107 13.6912 8.49094 11.5433 10.0601 9.94751C11.6293 8.35172 13.7621 7.43551 15.9998 7.39592V8.76481C14.1252 8.80431 12.3405 9.57625 11.028 10.9153C9.71552 12.2544 8.97951 14.0542 8.97761 15.9293V16.0004ZM12.8176 15.9293C12.8176 15.27 13.0131 14.6255 13.3794 14.0774C13.7456 13.5292 14.2662 13.1019 14.8753 12.8497C15.4844 12.5974 16.1546 12.5314 16.8012 12.66C17.4478 12.7886 18.0418 13.1061 18.508 13.5722C18.9741 14.0384 19.2916 14.6323 19.4202 15.279C19.5488 15.9256 19.4828 16.5958 19.2305 17.2049C18.9782 17.814 18.551 18.3345 18.0028 18.7008C17.4547 19.0671 16.8102 19.2626 16.1509 19.2626C15.2669 19.2626 14.419 18.9114 13.7939 18.2863C13.1688 17.6612 12.8176 16.8133 12.8176 15.9293ZM16.1509 28.1159H15.9998V26.667H16.1509C18.9876 26.6625 21.7082 25.5403 23.7231 23.5437C25.738 21.5471 26.885 18.8368 26.9154 16.0004H28.3376C28.3142 19.2187 27.0204 22.2975 24.738 24.5665C22.4556 26.8356 19.3693 28.1113 16.1509 28.1159Z" fill="#FFE836"/>
</g>
<defs>
<clipPath id="clip0_523_766">
<rect width="32" height="32" fill="white"/>
</clipPath>
</defs>
</svg>
