<svg width="24" height="24" viewBox="0 0 24 24" fill="none" xmlns="http://www.w3.org/2000/svg">
<path fill-rule="evenodd" clip-rule="evenodd" d="M12 4.15039C10.809 4.15039 9.42 4.17839 8.066 4.21639L8.011 4.21839C6.633 4.25739 5.521 4.28839 4.645 4.43339C3.732 4.58439 2.974 4.87339 2.368 5.49639C1.76 6.12139 1.495 6.89439 1.37 7.81939C1.25 8.70939 1.25 9.83739 1.25 11.2394V12.7634C1.25 14.1634 1.25 15.2914 1.37 16.1824C1.494 17.1074 1.76 17.8804 2.368 18.5054C2.974 19.1294 3.732 19.4174 4.645 19.5684C5.521 19.7134 6.633 19.7444 8.011 19.7834L8.066 19.7854C9.421 19.8234 10.809 19.8514 12 19.8514C13.191 19.8514 14.58 19.8234 15.934 19.7854L15.989 19.7834C17.367 19.7444 18.479 19.7134 19.355 19.5684C20.268 19.4174 21.026 19.1284 21.632 18.5054C22.24 17.8804 22.506 17.1074 22.63 16.1824C22.75 15.2924 22.75 14.1644 22.75 12.7624V11.2384C22.75 9.83739 22.75 8.70939 22.63 7.81939C22.506 6.89439 22.24 6.12139 21.632 5.49639C21.026 4.87239 20.268 4.58439 19.355 4.43339C18.479 4.28839 17.367 4.25739 15.988 4.21839L15.934 4.21639C14.623 4.1766 13.3116 4.1546 12 4.15039ZM10.872 14.6514C10.758 14.7165 10.6288 14.7506 10.4975 14.7501C10.3661 14.7497 10.2372 14.7148 10.1236 14.6489C10.01 14.5829 9.91571 14.4884 9.85014 14.3746C9.78457 14.2608 9.75004 14.1317 9.75 14.0004V10.0004C9.75004 9.86905 9.78457 9.74003 9.85014 9.62622C9.91571 9.51242 10.01 9.41783 10.1236 9.35192C10.2372 9.28601 10.3661 9.25108 10.4975 9.25064C10.6288 9.25019 10.758 9.28425 10.872 9.34939L14.372 11.3494C14.4867 11.415 14.582 11.5098 14.6484 11.6241C14.7147 11.7384 14.7496 11.8682 14.7496 12.0004C14.7496 12.1325 14.7147 12.2624 14.6484 12.3767C14.582 12.491 14.4867 12.5858 14.372 12.6514L10.872 14.6514Z" fill="white"/>
</svg>
